<?xml version="1.0" standalone="no"?>
<!DOCTYPE svg PUBLIC "-//W3C//DTD SVG 20010904//EN"
 "http://www.w3.org/TR/2001/REC-SVG-20010904/DTD/svg10.dtd">
<svg version="1.0" xmlns="http://www.w3.org/2000/svg"
 width="1375.000000pt" height="439.000000pt" viewBox="0 0 1375.000000 439.000000"
 preserveAspectRatio="xMidYMid meet">

<g transform="translate(0.000000,439.000000) scale(0.100000,-0.100000)"
fill="#000000" stroke="none">
<path d="M12385 3638 c-3 -7 -4 -364 -3 -793 l3 -780 138 -3 137 -3 0 796 0
795 -135 0 c-99 0 -137 -3 -140 -12z"/>
<path d="M3625 3580 c-262 -42 -479 -193 -590 -415 -54 -107 -77 -209 -77
-345 0 -280 113 -500 335 -652 128 -87 269 -128 443 -128 143 0 235 23 379 94
98 49 233 147 243 177 2 5 -46 63 -108 129 l-111 119 -57 -46 c-31 -26 -91
-63 -132 -82 -72 -34 -80 -36 -185 -36 -104 0 -114 2 -177 33 -70 34 -144 106
-178 172 -62 122 -67 295 -12 414 60 129 168 212 304 236 124 22 261 -27 374
-132 56 -53 66 -59 77 -45 7 8 56 70 111 136 112 138 112 123 6 203 -83 63
-204 122 -306 148 -91 24 -252 33 -339 20z"/>
<path d="M5590 3574 c-322 -62 -557 -270 -636 -564 -28 -100 -25 -301 4 -404
69 -242 258 -441 492 -521 236 -80 500 -44 710 98 68 46 141 108 138 118 -2 5
-39 49 -82 98 l-79 90 -46 -38 c-180 -149 -406 -180 -599 -82 -167 85 -263
249 -264 451 -1 148 37 243 141 353 97 103 207 148 359 149 136 1 248 -44 356
-143 l53 -48 79 100 c43 56 80 104 82 109 4 12 -134 117 -190 146 -27 14 -90
39 -141 56 -81 27 -107 31 -222 34 -71 1 -141 0 -155 -2z"/>
<path d="M1040 2812 l0 -752 173 2 172 3 0 468 c0 257 3 467 6 467 4 0 14 -17
22 -37 8 -21 64 -139 124 -263 60 -124 138 -285 173 -357 l63 -133 127 0 126
0 19 42 c10 23 90 191 178 372 87 182 164 342 170 356 9 19 13 -81 15 -447 l2
-473 175 0 175 0 0 750 0 750 -185 1 c-102 1 -192 2 -200 2 -8 0 -22 -1 -30
-2 -10 -1 -92 -156 -231 -438 l-215 -437 -216 437 -217 436 -213 3 -213 3 0
-753z"/>
<path d="M9320 3320 l0 -160 -80 0 -80 0 0 -100 0 -100 79 0 80 0 3 -337 c3
-330 4 -339 27 -390 27 -61 94 -127 156 -154 96 -43 259 -33 374 21 34 16 61
33 61 37 0 13 -53 187 -60 195 -3 4 -29 -1 -58 -12 -56 -22 -142 -26 -173 -10
-45 25 -49 51 -49 360 l0 290 160 0 160 0 0 100 0 100 -160 0 -159 0 -3 158
-3 157 -137 3 -138 3 0 -161z"/>
<path d="M6895 3211 c-207 -34 -362 -141 -437 -301 -47 -100 -59 -153 -59
-268 0 -121 14 -187 57 -278 62 -131 169 -224 317 -275 234 -81 532 -21 678
137 44 48 97 137 120 205 30 87 37 257 15 353 -48 203 -199 358 -401 411 -72
18 -223 27 -290 16z m242 -261 c61 -26 125 -91 156 -158 18 -39 21 -66 22
-157 0 -98 -3 -116 -26 -166 -32 -68 -88 -124 -154 -155 -40 -19 -67 -24 -136
-24 -76 0 -93 4 -148 31 -74 37 -133 106 -156 181 -22 75 -20 205 5 272 35 93
121 172 215 197 53 14 166 4 222 -21z"/>
<path d="M8391 3200 c-41 -11 -96 -34 -123 -51 -47 -30 -128 -113 -128 -130 0
-5 -4 -9 -10 -9 -6 0 -10 40 -10 100 l0 100 -135 0 -135 0 0 -575 0 -575 135
0 135 0 0 283 c0 155 5 311 10 346 27 163 137 264 290 265 111 1 186 -41 233
-128 21 -40 22 -53 25 -403 l3 -363 139 0 140 0 0 389 c0 219 -4 411 -10 441
-48 252 -283 382 -559 310z"/>
<path d="M10710 3202 c-105 -28 -188 -87 -252 -182 -16 -24 -17 -22 -17 83
l-1 107 -140 0 -140 0 2 -572 3 -573 137 -3 137 -3 3 323 3 323 26 55 c52 112
152 177 283 187 l76 6 0 133 0 134 -27 -1 c-16 0 -57 -8 -93 -17z"/>
<path d="M11415 3210 c-137 -22 -257 -82 -341 -171 -163 -173 -198 -456 -85
-685 69 -139 195 -237 361 -281 87 -23 271 -23 359 0 258 69 421 286 421 562
0 275 -164 494 -419 560 -80 20 -216 27 -296 15z m259 -264 c65 -32 109 -79
145 -156 23 -48 26 -68 26 -160 0 -94 -3 -111 -27 -160 -33 -67 -74 -111 -135
-147 -61 -35 -193 -45 -271 -19 -219 73 -283 409 -111 586 64 66 136 91 246
86 53 -2 86 -10 127 -30z"/>
<path d="M3150 956 l0 -366 45 0 45 0 -2 363 -3 362 -42 3 -43 3 0 -365z"/>
<path d="M11240 1165 l0 -156 -30 35 c-95 107 -294 81 -375 -48 -28 -46 -30
-56 -30 -146 0 -90 2 -100 30 -145 47 -75 101 -109 185 -113 83 -5 130 9 181
55 l39 35 0 -46 0 -46 45 0 45 0 -2 363 -3 362 -42 3 -43 3 0 -156z m-89 -156
c83 -42 113 -177 59 -264 -54 -88 -179 -107 -260 -39 -100 85 -71 271 50 317
35 13 112 6 151 -14z"/>
<path d="M12570 1165 l0 -157 -27 33 c-82 97 -278 89 -358 -15 -74 -97 -73
-256 2 -354 78 -103 274 -110 356 -13 l27 33 0 -51 0 -51 45 0 45 0 -2 363 -3
362 -42 3 -43 3 0 -156z m-88 -157 c52 -30 79 -76 85 -146 8 -97 -45 -172
-136 -193 -112 -25 -210 59 -211 182 0 137 143 223 262 157z"/>
<path d="M1833 1284 c-15 -24 -15 -29 -2 -53 17 -31 68 -41 89 -16 16 19 16
60 0 80 -20 25 -67 19 -87 -11z"/>
<path d="M2823 1284 c-15 -24 -15 -29 -2 -53 16 -29 61 -40 85 -20 17 14 19
70 2 87 -22 22 -66 14 -85 -14z"/>
<path d="M5382 1298 c-7 -7 -12 -26 -12 -43 0 -38 16 -55 50 -55 48 0 73 47
50 91 -12 22 -68 27 -88 7z"/>
<path d="M10529 1286 c-16 -35 -4 -74 25 -82 56 -14 91 29 67 82 -8 19 -18 24
-46 24 -28 0 -38 -5 -46 -24z"/>
<path d="M1052 1272 c-6 -2 52 -156 127 -342 l136 -340 50 0 50 0 22 58 c11
31 73 185 137 341 64 157 116 285 116 286 0 0 -23 -2 -51 -5 l-51 -5 -108
-278 c-60 -154 -110 -281 -112 -283 -2 -2 -27 56 -56 129 -28 73 -78 202 -112
287 l-60 155 -40 0 c-21 0 -43 -1 -48 -3z"/>
<path d="M7588 1266 c-77 -28 -113 -65 -128 -130 -17 -76 20 -154 91 -192 15
-7 71 -27 125 -45 112 -36 154 -68 154 -119 0 -68 -49 -103 -145 -104 -65 0
-168 39 -201 75 -24 27 -29 24 -49 -22 l-19 -41 25 -19 c64 -49 133 -73 220
-77 191 -10 303 87 270 232 -17 70 -73 113 -206 156 -134 44 -165 68 -165 128
0 79 127 108 254 57 37 -15 69 -25 70 -23 7 7 36 67 36 73 0 3 -26 18 -57 33
-70 32 -213 42 -275 18z"/>
<path d="M1832 853 l3 -258 43 -3 42 -3 0 260 0 261 -45 0 -45 0 2 -257z"/>
<path d="M2246 1095 c-140 -50 -192 -261 -96 -392 63 -86 202 -113 295 -58 25
14 49 33 52 41 10 27 23 14 23 -25 0 -156 -143 -231 -296 -156 -30 15 -57 25
-58 24 -9 -11 -26 -49 -26 -59 0 -6 26 -23 57 -37 120 -55 267 -39 345 39 61
60 68 103 68 390 l0 248 -45 0 -45 0 0 -47 0 -47 -32 32 c-62 59 -156 78 -242
47z m156 -67 c74 -22 127 -115 113 -197 -14 -86 -76 -141 -158 -141 -100 0
-167 68 -167 169 0 89 33 140 107 167 48 17 56 17 105 2z"/>
<path d="M2827 1103 c-4 -3 -7 -120 -7 -260 l0 -253 45 0 45 0 0 260 0 260
-38 0 c-21 0 -42 -3 -45 -7z"/>
<path d="M3565 1097 c-56 -19 -105 -46 -105 -58 0 -5 7 -20 15 -33 l15 -23 48
22 c63 30 114 38 161 25 48 -13 81 -51 81 -95 l0 -32 -119 -5 c-105 -4 -124
-8 -164 -31 -92 -54 -94 -185 -5 -249 28 -20 45 -23 119 -23 77 0 90 3 127 28
23 15 43 27 45 27 2 0 2 -13 -1 -30 -4 -30 -4 -30 42 -30 l46 0 0 196 c0 223
-6 248 -72 292 -32 21 -53 26 -116 29 -46 2 -93 -2 -117 -10z m215 -303 c0
-72 -51 -121 -137 -130 -85 -9 -146 42 -130 108 10 39 65 57 175 57 l92 1 0
-36z"/>
<path d="M4090 850 l0 -260 44 0 45 0 3 168 c3 156 5 169 26 200 31 43 75 64
134 65 57 1 94 -22 120 -74 15 -28 18 -62 18 -196 l0 -163 45 0 45 0 0 173 c0
179 -8 232 -43 281 -60 85 -227 88 -309 6 l-38 -38 0 49 0 49 -45 0 -45 0 0
-260z"/>
<path d="M4910 1101 c-69 -21 -121 -65 -156 -131 -14 -26 -19 -56 -19 -120 0
-100 20 -147 85 -202 90 -78 245 -79 346 -2 l35 27 -27 29 c-27 28 -28 28 -48
9 -51 -46 -180 -54 -234 -15 -39 29 -72 99 -72 155 0 144 144 221 280 150 l43
-22 26 26 26 26 -30 25 c-55 45 -181 67 -255 45z"/>
<path d="M5380 850 l0 -260 45 0 45 0 0 260 0 260 -45 0 -45 0 0 -260z"/>
<path d="M5810 1103 c-8 -3 -41 -17 -72 -30 l-57 -25 15 -29 c17 -35 19 -35
79 -8 118 52 235 10 235 -84 0 -24 -1 -25 -118 -29 -101 -3 -124 -7 -162 -29
-102 -55 -105 -179 -7 -253 59 -43 207 -30 265 25 l22 20 0 -36 c0 -35 0 -35
45 -35 l45 0 0 183 c0 100 -5 198 -10 217 -12 43 -62 93 -109 109 -34 11 -143
14 -171 4z m200 -313 c0 -29 -7 -48 -30 -73 -74 -85 -240 -66 -240 28 0 66 36
83 178 84 l92 1 0 -40z"/>
<path d="M6533 1097 c3 -8 51 -125 107 -260 l102 -245 -23 -44 c-33 -58 -69
-75 -118 -56 -37 15 -38 15 -54 -14 -24 -41 -22 -47 18 -64 73 -30 149 -13
197 45 21 24 268 619 268 644 0 4 -19 7 -43 7 l-43 0 -74 -197 c-40 -109 -76
-201 -80 -206 -4 -4 -42 84 -86 195 l-80 203 -49 3 c-38 3 -47 0 -42 -11z"/>
<path d="M8260 1101 c-125 -38 -185 -128 -179 -269 3 -66 9 -86 34 -128 19
-30 49 -60 79 -79 46 -28 57 -30 140 -30 79 0 98 4 141 26 65 35 76 52 48 80
l-21 21 -48 -28 c-40 -23 -61 -29 -109 -29 -92 1 -156 47 -171 122 l-6 28 204
0 203 0 -2 50 c-4 117 -61 206 -149 233 -45 13 -125 15 -164 3z m161 -87 c36
-18 69 -69 69 -106 l0 -28 -160 0 c-176 0 -173 -1 -146 63 35 85 147 118 237
71z"/>
<path d="M8845 1095 c-54 -19 -119 -92 -134 -149 -25 -100 -4 -200 56 -261 48
-49 94 -67 170 -67 49 0 71 5 108 27 25 14 49 33 52 41 10 25 23 15 23 -18 -1
-123 -65 -190 -182 -190 -44 0 -73 7 -114 27 -30 15 -56 25 -58 24 -1 -2 -10
-16 -19 -31 l-17 -27 43 -25 c150 -86 345 -48 409 81 22 46 23 58 26 316 l3
267 -45 0 -46 0 0 -47 0 -47 -32 32 c-63 60 -155 78 -243 47z m157 -67 c81
-24 130 -118 108 -209 -21 -87 -72 -129 -157 -129 -62 0 -112 27 -141 76 -19
32 -22 50 -20 106 4 80 24 113 88 146 50 25 67 27 122 10z"/>
<path d="M9410 917 c0 -180 1 -196 23 -237 55 -111 244 -123 330 -21 l27 33 0
-51 0 -51 45 0 45 0 0 260 0 260 -45 0 -45 0 0 -142 c0 -79 -5 -160 -10 -180
-33 -117 -193 -154 -257 -59 -22 32 -23 43 -23 207 l0 174 -45 0 -45 0 0 -193z"/>
<path d="M10110 850 l0 -260 44 0 45 0 3 164 c3 149 5 167 24 193 31 42 83 73
120 73 34 0 34 1 34 45 0 40 -2 45 -22 45 -37 -1 -102 -35 -131 -69 l-27 -33
0 51 0 51 -45 0 -45 0 0 -260z"/>
<path d="M10530 850 l0 -260 45 0 45 0 0 260 0 260 -45 0 -45 0 0 -260z"/>
<path d="M11655 1096 c-46 -15 -105 -44 -105 -52 0 -3 8 -19 17 -34 l16 -29
47 24 c118 60 226 29 246 -71 l6 -31 -119 -5 c-90 -3 -127 -8 -158 -23 -111
-55 -114 -205 -5 -262 76 -41 198 -27 257 29 l23 21 0 -36 0 -37 45 0 45 0 0
173 c-1 240 -13 280 -100 325 -51 25 -148 29 -215 8z m219 -308 c-2 -50 -27
-86 -77 -109 -79 -35 -163 -17 -187 41 -12 28 -11 37 1 59 21 37 70 51 174 48
l90 -2 -1 -37z"/>
</g>
</svg>
