<?xml version="1.0" standalone="no"?>
<!DOCTYPE svg PUBLIC "-//W3C//DTD SVG 20010904//EN"
 "http://www.w3.org/TR/2001/REC-SVG-20010904/DTD/svg10.dtd">
<svg version="1.0" xmlns="http://www.w3.org/2000/svg"
 width="254.000000pt" height="96.000000pt" viewBox="0 0 254.000000 96.000000"
 preserveAspectRatio="xMidYMid meet">

<g transform="translate(0.000000,96.000000) scale(0.100000,-0.100000)"
fill="#000000" stroke="none">
<path d="M320 512 l0 -128 84 -47 c47 -26 87 -47 91 -47 3 0 5 12 3 27 -2 21
-16 34 -60 60 l-58 34 0 70 0 70 58 -32 58 -31 54 28 c30 16 58 30 63 32 4 2
7 -37 7 -87 0 -90 0 -91 25 -91 l25 0 0 135 0 136 -87 -47 -88 -47 -84 46
c-46 26 -85 47 -87 47 -2 0 -4 -58 -4 -128z"/>
<path d="M2240 530 c0 -73 3 -90 15 -90 12 0 15 17 15 90 0 73 -3 90 -15 90
-12 0 -15 -17 -15 -90z"/>
<path d="M1000 523 c0 -67 3 -83 15 -83 11 0 15 12 15 45 0 54 11 58 29 10 16
-46 42 -45 67 3 l19 37 3 -47 c2 -34 7 -48 18 -48 11 0 14 17 14 80 0 78 -1
80 -24 80 -18 0 -28 -10 -44 -47 l-20 -46 -25 49 c-18 36 -31 50 -46 50 -20 0
-21 -6 -21 -83z"/>
<path d="M1255 599 c-51 -29 -62 -99 -22 -137 39 -37 142 -22 118 17 -8 12
-15 13 -35 3 -21 -9 -29 -8 -48 7 -19 16 -21 23 -13 47 11 31 46 44 69 25 10
-8 16 -8 25 3 23 28 -55 57 -94 35z"/>
<path d="M1474 596 c-35 -15 -59 -63 -49 -96 16 -51 78 -75 126 -50 32 18 21
28 -28 27 -40 -2 -49 1 -59 22 -25 48 26 98 74 72 19 -10 32 -6 32 10 0 5 -58
31 -64 29 -1 -1 -15 -7 -32 -14z"/>
<path d="M1903 583 c4 -3 2 -12 -4 -20 -9 -9 -8 -17 0 -27 6 -7 11 -27 9 -43
-3 -38 8 -53 38 -53 29 0 33 25 4 33 -15 4 -20 14 -20 36 0 24 4 31 20 31 11
0 20 5 20 10 0 6 -9 10 -20 10 -11 0 -20 7 -20 15 0 8 -7 15 -17 15 -9 0 -13
-3 -10 -7z"/>
<path d="M1622 560 c-51 -21 -49 -103 3 -116 60 -15 105 28 85 81 -7 19 -50
49 -63 44 -1 0 -12 -4 -25 -9z m58 -39 c18 -34 -10 -68 -44 -55 -21 8 -28 32
-16 55 14 25 46 25 60 0z"/>
<path d="M1800 560 c-8 -5 -25 -7 -37 -3 -22 5 -23 3 -23 -56 0 -48 3 -61 15
-61 10 0 15 10 15 31 0 37 16 69 35 69 20 0 37 -35 33 -68 -2 -20 2 -28 16
-30 17 -4 18 1 14 49 -4 35 -11 57 -24 66 -21 15 -24 16 -44 3z"/>
<path d="M2051 561 c-7 -5 -22 -6 -32 -4 -17 5 -19 -1 -19 -56 0 -48 3 -61 15
-61 11 0 15 11 15 39 0 29 6 44 21 55 23 16 23 41 0 27z"/>
<path d="M2130 563 c-48 -18 -63 -60 -34 -101 19 -28 74 -30 97 -4 43 47 -5
126 -63 105z m38 -35 c30 -30 0 -78 -37 -58 -32 17 -21 70 14 70 6 0 16 -5 23
-12z"/>
<path d="M1220 320 c0 -22 5 -40 10 -40 6 0 10 18 10 40 0 22 -4 40 -10 40 -5
0 -10 -18 -10 -40z"/>
<path d="M1710 345 c-14 -16 -5 -35 16 -35 8 0 14 -5 14 -11 0 -6 -9 -9 -20
-6 -11 3 -20 1 -20 -4 0 -13 38 -11 46 2 4 7 -3 20 -17 29 l-23 18 25 4 c19 2
21 5 7 10 -9 4 -21 1 -28 -7z"/>
<path d="M2260 344 c0 -10 -6 -14 -14 -11 -19 7 -40 -18 -32 -38 3 -8 17 -15
31 -15 23 0 25 4 25 40 0 22 -2 40 -5 40 -3 0 -5 -7 -5 -16z m0 -39 c0 -8 -6
-15 -14 -15 -17 0 -28 14 -19 24 12 12 33 6 33 -9z"/>
<path d="M1000 346 c0 -13 23 -66 29 -66 4 0 15 16 24 35 9 19 13 35 8 35 -5
0 -14 -12 -19 -27 l-10 -28 -11 28 c-9 23 -21 36 -21 23z"/>
<path d="M2110 340 c0 -5 -3 -9 -7 -9 -25 4 -34 -3 -31 -23 2 -15 11 -24 26
-26 12 -2 22 0 23 5 0 4 2 20 4 36 2 15 -1 27 -6 27 -5 0 -9 -4 -9 -10z m0
-35 c0 -8 -7 -15 -15 -15 -8 0 -15 7 -15 15 0 8 7 15 15 15 8 0 15 -7 15 -15z"/>
<path d="M1119 324 c-11 -14 -10 -19 9 -34 20 -17 21 -19 5 -24 -11 -3 -8 -4
7 -3 20 2 26 8 28 35 2 17 -1 32 -7 32 -6 0 -8 -6 -5 -14 6 -16 -11 -30 -26
-21 -8 5 -7 11 1 21 6 8 10 17 7 19 -3 3 -11 -2 -19 -11z"/>
<path d="M1274 329 c-4 -8 -3 -9 4 -5 7 4 12 2 12 -3 0 -6 -7 -11 -15 -11 -8
0 -15 -7 -15 -15 0 -9 9 -15 25 -15 18 0 25 5 25 19 0 25 -25 47 -36 30z"/>
<path d="M1343 333 c-7 -2 -12 -17 -12 -31 2 -24 2 -24 6 -4 2 12 11 22 18 22
7 0 16 -10 18 -22 4 -16 5 -14 4 6 -2 30 -12 38 -34 29z"/>
<path d="M1410 325 c-17 -21 -5 -45 22 -44 l23 0 -22 9 c-29 12 -30 30 -2 30
11 0 17 5 14 10 -9 14 -21 12 -35 -5z"/>
<path d="M1514 329 c-4 -7 -3 -9 4 -5 6 3 13 2 16 -3 3 -5 -4 -11 -15 -14 -25
-7 -16 -27 12 -27 16 0 20 6 17 27 -3 29 -22 41 -34 22z m23 -35 c-3 -3 -12
-4 -19 -1 -8 3 -5 6 6 6 11 1 17 -2 13 -5z"/>
<path d="M1780 325 c-17 -21 -5 -45 22 -44 l23 2 -22 4 c-13 2 -23 11 -23 19
0 17 26 19 34 2 3 -7 5 -4 3 6 -3 25 -21 31 -37 11z"/>
<path d="M1853 333 c-22 -8 -15 -44 10 -51 22 -6 22 -6 -3 -13 l-25 -8 25 2
c20 2 26 8 28 33 3 32 -10 45 -35 37z m27 -28 c0 -8 -7 -15 -15 -15 -8 0 -15
7 -15 15 0 8 7 15 15 15 8 0 15 -7 15 -15z"/>
<path d="M2154 328 c-4 -6 -3 -8 4 -4 6 3 13 2 17 -4 3 -5 -1 -10 -9 -10 -9 0
-16 -7 -16 -16 0 -20 45 -15 46 6 1 31 -28 51 -42 28z"/>
<path d="M1082 305 c0 -16 2 -22 5 -12 2 9 2 23 0 30 -3 6 -5 -1 -5 -18z"/>
<path d="M1192 305 c0 -16 2 -22 5 -12 2 9 2 23 0 30 -3 6 -5 -1 -5 -18z"/>
<path d="M1472 305 c0 -16 2 -22 5 -12 2 9 2 23 0 30 -3 6 -5 -1 -5 -18z"/>
<path d="M1610 306 c8 -22 8 -31 -2 -38 -10 -6 -10 -8 -1 -8 7 0 19 13 28 30
17 33 20 55 4 27 -10 -18 -11 -18 -25 0 -13 16 -13 15 -4 -11z"/>
<path d="M1912 308 c2 -17 11 -24 31 -26 23 -3 27 0 27 22 0 14 -4 26 -10 26
-5 0 -10 -9 -10 -21 0 -12 -5 -19 -12 -16 -7 2 -12 12 -12 21 1 9 -3 16 -8 16
-5 0 -8 -10 -6 -22z"/>
<path d="M1991 303 c0 -16 3 -22 6 -13 3 8 10 21 16 28 7 8 5 12 -7 12 -11 0
-16 -8 -15 -27z"/>
<path d="M2042 305 c0 -16 2 -22 5 -12 2 9 2 23 0 30 -3 6 -5 -1 -5 -18z"/>
</g>
</svg>
